<?xml version="1.0" standalone="no"?>
<!DOCTYPE svg PUBLIC "-//W3C//DTD SVG 20010904//EN"
 "http://www.w3.org/TR/2001/REC-SVG-20010904/DTD/svg10.dtd">
<svg version="1.0" xmlns="http://www.w3.org/2000/svg"
 width="512.000000pt" height="512.000000pt" viewBox="0 0 512.000000 512.000000"
 preserveAspectRatio="xMidYMid meet">
<metadata>
Created by potrace 1.11, written by Peter Selinger 2001-2013
</metadata>
<g transform="translate(0.000000,512.000000) scale(0.100000,-0.100000)"
fill="#000000" stroke="none">
<path d="M3000 5004 c-331 -40 -684 -163 -944 -331 -88 -57 -227 -172 -262
-218 l-26 -35 -36 31 c-139 122 -318 105 -466 -43 -137 -138 -278 -396 -369
-673 -72 -220 -92 -372 -91 -710 1 -275 11 -390 60 -688 15 -90 23 -162 18
-166 -5 -4 -31 -16 -58 -26 -65 -24 -119 -79 -136 -138 -18 -65 -8 -214 20
-297 90 -270 237 -393 381 -319 23 11 43 19 45 17 3 -3 59 -394 99 -690 20
-149 47 -256 82 -319 142 -261 645 -342 1478 -238 336 41 591 96 751 159 290
116 427 247 479 462 16 66 34 348 35 551 0 64 3 117 8 117 4 0 15 -7 26 -15
28 -21 97 -28 147 -15 63 17 123 80 143 151 35 120 47 410 20 499 -27 93 -90
168 -182 221 l-40 23 -6 86 c-17 249 -18 460 -2 625 19 205 34 431 42 660 7
194 -4 282 -58 433 -49 141 -174 373 -299 557 -111 165 -265 264 -484 310 -69
15 -308 27 -375 19z m-1075 -524 c-10 -11 -20 -18 -23 -15 -7 6 18 35 31 35 5
0 2 -9 -8 -20z m-247 -69 c3 -8 -1 -12 -9 -9 -7 2 -15 10 -17 17 -3 8 1 12 9
9 7 -2 15 -10 17 -17z m1643 -155 c166 -17 204 -34 306 -138 136 -139 188
-241 237 -458 23 -107 58 -360 50 -369 -2 -2 -12 6 -21 18 -16 19 -31 23 -113
28 -109 6 -243 -9 -324 -37 -102 -35 -177 -103 -148 -132 6 -6 57 -19 114 -29
209 -37 363 -95 439 -163 20 -19 45 -37 56 -40 18 -6 20 -27 36 -259 31 -454
39 -742 34 -1282 -5 -573 -5 -578 -62 -700 -106 -231 -379 -357 -955 -444
-583 -87 -1013 -94 -1285 -21 -118 32 -234 91 -271 137 -71 88 -86 137 -119
383 -14 101 -39 279 -56 395 -59 410 -69 531 -80 1030 -6 259 -9 530 -7 603
l3 133 35 29 c73 60 170 109 305 154 77 26 149 56 161 67 11 11 49 25 84 33
103 20 107 56 13 102 -53 26 -67 29 -163 29 -125 -1 -230 -27 -345 -86 -41
-21 -75 -37 -75 -35 0 50 45 459 55 504 60 255 174 321 804 462 124 28 260 60
303 71 78 20 280 27 305 11 22 -14 43 -80 55 -177 9 -81 8 -150 -7 -404 -19
-323 -18 -536 6 -1134 19 -472 -13 -606 -166 -682 -58 -29 -64 -30 -200 -30
-161 0 -218 14 -286 71 -45 38 -50 39 -67 22 -48 -48 63 -126 217 -154 322
-57 508 50 561 324 13 63 11 262 -6 1043 -5 186 -3 347 5 460 15 217 16 487 2
558 -6 30 -18 68 -26 84 -8 17 -15 32 -15 34 0 9 494 1 611 -11z m817 -1991
c139 -70 205 -156 218 -282 8 -76 -12 -326 -31 -389 -20 -67 -60 -105 -119
-111 -55 -7 -100 10 -125 46 -16 23 -19 59 -25 376 -4 193 -10 360 -13 373 -7
31 11 29 95 -13z m-3045 -327 c6 -176 17 -312 32 -425 5 -35 3 -43 -9 -43 -9
0 -30 -9 -48 -20 -66 -40 -125 -20 -188 63 -87 117 -146 296 -138 427 3 60 7
73 33 100 17 18 46 38 65 47 40 17 157 40 211 42 l36 1 6 -192z"/>
<path d="M3507 2670 c-73 -65 -84 -138 -36 -250 27 -62 109 -141 172 -165 59
-22 157 -16 195 12 52 39 67 70 67 136 -1 78 -28 139 -92 208 -61 66 -129 99
-204 99 -51 0 -60 -3 -102 -40z m213 -58 c114 -70 166 -224 95 -280 -66 -52
-156 -35 -232 43 -83 85 -102 184 -46 239 43 43 109 42 183 -2z"/>
<path d="M3615 2566 c-28 -28 -40 -66 -31 -101 17 -67 104 -108 147 -69 12 11
23 18 26 16 3 -2 8 0 11 4 4 4 2 4 -4 1 -7 -4 -9 11 -7 46 4 60 -13 102 -42
102 -11 0 -26 6 -33 13 -20 18 -40 15 -67 -12z"/>
<path d="M3570 2431 c0 -6 4 -13 10 -16 6 -3 7 1 4 9 -7 18 -14 21 -14 7z"/>
<path d="M1520 2677 c-191 -54 -282 -273 -168 -403 56 -64 99 -79 218 -79 94
0 110 3 155 27 235 124 168 444 -97 463 -36 3 -82 -1 -108 -8z m190 -79 c24
-13 53 -35 64 -50 21 -29 33 -119 22 -162 -18 -72 -126 -136 -229 -136 -69 0
-150 38 -177 82 -36 59 -21 158 33 217 63 69 202 92 287 49z"/>
<path d="M1580 2510 c0 -6 -10 -8 -24 -4 -27 7 -52 -15 -72 -63 -35 -83 59
-141 160 -99 47 20 63 63 41 111 -10 19 -27 42 -39 50 -23 17 -66 20 -66 5z"/>
<path d="M3416 1689 c-138 -15 -313 -48 -629 -120 -169 -38 -358 -78 -420 -89
-274 -46 -515 -50 -702 -11 -89 19 -90 18 -122 -1 -18 -11 -33 -27 -33 -35 0
-8 22 -39 49 -68 35 -40 62 -86 102 -177 88 -201 130 -254 273 -346 207 -134
472 -195 846 -195 311 0 465 35 571 131 111 99 142 237 100 437 -34 157 -37
248 -12 322 11 34 18 69 15 77 -5 14 8 16 103 16 121 0 158 13 137 47 -9 15
-26 18 -105 19 -52 1 -129 -2 -173 -7z m-16 -71 c-7 -44 -52 -163 -64 -170 -9
-5 -71 -13 -138 -19 -244 -19 -666 -84 -805 -124 -28 -8 -71 -15 -95 -15 -23
-1 -61 -8 -83 -16 -42 -17 -81 -26 -180 -44 -32 -6 -61 -13 -64 -15 -2 -3 -12
2 -22 11 -12 11 -29 15 -51 11 -18 -3 -53 -9 -77 -13 -30 -5 -42 -4 -37 4 8
14 228 66 406 96 80 14 300 45 490 70 365 49 527 73 541 82 15 9 10 44 -6 50
-8 3 -56 -1 -107 -9 -154 -26 -558 -79 -570 -75 -6 2 34 14 88 26 54 11 189
42 299 66 262 60 477 97 475 84z m-1667 -227 c43 -6 149 -11 235 -12 106 -1
146 -4 122 -9 -19 -5 -91 -21 -159 -35 -180 -38 -196 -45 -196 -77 0 -47 -12
-41 -45 24 -18 35 -41 75 -51 90 -24 33 -24 41 -1 34 9 -3 52 -10 95 -15z
m1654 -253 c-3 -8 -6 -5 -6 6 -1 11 2 17 5 13 3 -3 4 -12 1 -19z m-714 -15
c-7 -2 -21 -2 -30 0 -10 3 -4 5 12 5 17 0 24 -2 18 -5z m117 -3 c11 -8 7 -9
-15 -4 -37 8 -45 14 -19 14 10 0 26 -5 34 -10z m-237 -35 c-39 -19 -75 -35
-79 -35 -18 0 20 26 69 46 82 35 88 28 10 -11z m634 19 c-3 -3 -12 -4 -19 -1
-8 3 -5 6 6 6 11 1 17 -2 13 -5z m223 -55 c0 -20 -15 -26 -24 -10 -8 13 4 42
15 35 5 -3 9 -14 9 -25z m-57 -177 c-66 -83 -180 -133 -342 -152 -97 -11 -390
-11 -436 0 l-30 7 35 6 c19 4 93 16 164 27 210 33 472 99 586 148 25 11 47 15
49 10 2 -5 -10 -26 -26 -46z m-1206 -58 c-5 -5 -137 60 -162 80 -11 8 22 -6
73 -31 51 -25 91 -47 89 -49z"/>
</g>
</svg>
