<svg xmlns="http://www.w3.org/2000/svg" viewBox="0 0 299.89 13.96"><defs><style>.cls-1{fill:#fff;}</style></defs><title>sk-border-1</title><g id="Layer_2" data-name="Layer 2"><g id="Layer_1-2" data-name="Layer 1"><path class="cls-1" d="M289,1c-10.23,0-18.54,2.36-28.81.5-5.65-1-10.94,1-16.68,1.68-6,.71-11.36-.08-17.28-1.07s-11.14-.55-17-.09c-5.52.44-10.06-.85-15.42-1.42C182.73-.61,171.28.37,160.12.63c-23.69.55-47.51,1-71.26,1.49C65,2.58,35,1,11,1l-.11,0V1H0V14H11c5,0,17-2.43,21.5-2,6.86.7,13.65.9,20.49,1.45,5.49.45,10.48-1.25,15.91-.55,4.95.63,8.33-1.29,13.07-1.63s9.61,1.85,14.32,2.3c6.18.59,11.11-1.2,17-2.48,5-1.09,9.45.46,14.4,1.23a112.2,112.2,0,0,0,19.56,1c12.28-.23,24.34-.27,36.62.23,3.47.14,7,.6,10.41-.21,2.67-.63,4.48-1.68,7.33-1.49,5.88.37,11.06,1.74,17.09,1.2,7.11-.64,13.72-1.57,20.88-1,5.94.48,11.52-1.93,17.24-1.13,3,.42,5.83,1.67,8.88,1.92,3.25.26,6.49-.26,9.75,0,4.19.34,9.28,1.15,13.54,1.15h10.89V1Z"/></g></g></svg>